<?xml version="1.0" encoding="UTF-8"?>
<svg version="1.1" xmlns="http://www.w3.org/2000/svg" width="1920" height="1447">
<path d="M0 0 C633.6 0 1267.2 0 1920 0 C1920 477.51 1920 955.02 1920 1447 C1286.4 1447 652.8 1447 0 1447 C0 969.49 0 491.98 0 0 Z " fill="#333333" transform="translate(0,0)"/>
<path d="M0 0 C2.60206818 -0.00387122 5.20413423 -0.00949532 7.80619529 -0.0167096 C13.47279104 -0.02958583 19.13923094 -0.02766812 24.80582709 -0.01599782 C33.28888769 0.00139695 41.77182636 -0.00438828 50.25489303 -0.01461232 C64.71412589 -0.03136382 79.17330035 -0.02916467 93.63253498 -0.0166254 C108.28362857 -0.00398976 122.93468601 -0.00006015 137.58578396 -0.00673962 C138.51145133 -0.00715583 139.4371187 -0.00757204 140.39083659 -0.00800086 C144.16098521 -0.00972559 147.93113379 -0.01151345 151.70128234 -0.01338105 C186.81133916 -0.030768 221.9213693 -0.02859352 257.03142643 -0.01404476 C290.86819474 -0.00004169 324.704951 0.00699992 358.5417223 0.00424671 C360.66619265 0.00408383 362.790663 0.00392179 364.91513335 0.0037606 C373.45234433 0.0031023 381.98955531 0.00239855 390.52676629 0.00163526 C414.39216707 -0.00047644 438.2575678 -0.00122885 462.12296867 -0.00094795 C463.20976697 -0.00093557 464.29656527 -0.00092319 465.41629685 -0.00091044 C500.04956419 -0.000421 534.68282778 0.00600487 569.31609344 0.01660919 C570.43949558 0.01695263 571.56289771 0.01729607 572.72034233 0.01764991 C590.96403514 0.02324863 609.20772784 0.02918282 627.45142053 0.03513897 C699.81199753 0.05874134 772.17255345 0.06493373 844.53313351 0.05452633 C849.10590728 0.05387312 853.67868106 0.05322181 858.25145484 0.05257083 C859.38205544 0.05240979 860.51265603 0.05224876 861.67751726 0.05208284 C874.19836955 0.05030339 886.71922185 0.04858124 899.24007416 0.04692841 C900.36288348 0.04677904 901.4856928 0.04662967 902.64252665 0.04647578 C962.1755318 0.03861906 1021.70853508 0.04422451 1081.24153957 0.0550417 C1089.77083417 0.05659095 1098.30012879 0.0581043 1106.8294234 0.05961653 C1110.01054164 0.06018476 1113.19165988 0.06076625 1116.37277812 0.06134826 C1139.64592061 0.06555093 1162.91906099 0.06774543 1186.19220376 0.06466317 C1187.24125597 0.06452456 1188.29030817 0.06438595 1189.37114984 0.06424314 C1194.65311851 0.06353273 1199.93508718 0.06278653 1205.21705584 0.06202578 C1243.37627289 0.05653901 1281.53546773 0.06065048 1319.69467992 0.08201433 C1323.45240031 0.08407665 1327.21012072 0.08609339 1330.96784115 0.08807468 C1332.35117014 0.0888111 1332.35117014 0.0888111 1333.76244517 0.0895624 C1348.37564402 0.09707656 1362.98882319 0.09455927 1377.60202173 0.08790084 C1391.96477611 0.08157209 1406.32749408 0.08594776 1420.6902415 0.10177914 C1429.1143592 0.11074811 1437.53838164 0.11152556 1445.9624971 0.10023794 C1452.21164735 0.09278062 1458.46068522 0.10091342 1464.70982159 0.11518602 C1467.22583049 0.11850847 1469.74185225 0.11678011 1472.25785269 0.10945753 C1475.67068993 0.10025646 1479.08300568 0.10953995 1482.49581629 0.12337309 C1483.95046146 0.11279195 1483.95046146 0.11279195 1485.43449341 0.10199706 C1501.33255168 0.2311434 1513.96844851 6.23833601 1525.39861202 17.13729 C1536.76278869 28.75101785 1542.83223853 41.48413326 1542.83876252 57.92085141 C1542.84123869 59.01673592 1542.84123869 59.01673592 1542.84376488 60.13475952 C1542.84808717 62.58887564 1542.8452894 65.04293168 1542.84253979 67.49704933 C1542.84418955 69.27947529 1542.84627587 71.06190088 1542.84875989 72.84432587 C1542.85433473 77.76540448 1542.85365263 82.68646572 1542.8519823 87.60754648 C1542.85125234 92.9526693 1542.85627145 98.29778719 1542.86055732 103.64290792 C1542.8681452 114.25458879 1542.87033078 124.86626463 1542.87088637 135.47794793 C1542.87179923 148.18422331 1542.8784644 160.89049402 1542.8852332 173.59676739 C1542.90092151 203.57936024 1542.90698243 233.56195226 1542.91164023 263.54454847 C1542.91402309 278.79698575 1542.91772648 294.04942258 1542.92167732 309.30185952 C1542.93434168 358.22044243 1542.94512584 407.13902533 1542.94851778 456.05760986 C1542.94868002 458.39577051 1542.94884558 460.73393117 1542.94901217 463.07209183 C1542.94934597 467.76134736 1542.94967645 472.45060289 1542.95000672 477.13985842 C1542.95039362 482.62989355 1542.95078323 488.11992868 1542.95117779 493.60996381 C1542.95129021 495.1812591 1542.95140162 496.75255438 1542.95151204 498.32384967 C1542.95506196 548.79529776 1542.97014245 599.26673162 1542.99344979 649.73817428 C1543.01019016 686.0037239 1543.02566589 722.26927084 1543.03018475 758.53482437 C1543.03032497 759.65341517 1543.03032497 759.65341517 1543.03046804 760.79460376 C1543.03248703 777.16474538 1543.03364312 793.53488696 1543.03399662 809.9050287 C1543.0341328 815.762519 1543.03434179 821.6200093 1543.03458987 827.4774996 C1543.03465143 828.93471252 1543.03470976 830.39192545 1543.03476482 831.84913837 C1543.0356848 855.07329036 1543.04565494 878.29742749 1543.06022231 901.52157459 C1543.07524166 925.56246556 1543.07942932 949.60333246 1543.07112935 973.64422753 C1543.06666499 987.50812822 1543.07056591 1001.37196803 1543.08636786 1015.23586075 C1543.09609249 1024.49097404 1543.09496373 1033.74604451 1543.08493163 1043.00115738 C1543.07952145 1048.27816268 1543.07888776 1053.55505077 1543.09144035 1058.83204653 C1543.10276584 1063.63313299 1543.10026962 1068.43400667 1543.08677328 1073.23508571 C1543.08433865 1074.96068886 1543.08692551 1076.68630834 1543.09516975 1078.41189351 C1543.13576095 1087.50617412 1542.80176753 1095.82487169 1539.71111202 1104.50057125 C1539.38111202 1105.49057125 1539.05111202 1106.48057125 1538.71111202 1107.50057125 C1538.05111202 1107.50057125 1537.39111202 1107.50057125 1536.71111202 1107.50057125 C1535.02644094 1105.53665596 1533.45597079 1103.56251535 1531.89861202 1101.50057125 C1530.90516398 1100.20917193 1529.91031579 1098.91884878 1528.91423702 1097.6294775 C1528.13016476 1096.61264889 1528.13016476 1096.61264889 1527.33025265 1095.57527828 C1524.658101 1092.1512818 1521.90127073 1088.7974135 1519.14861202 1085.43807125 C1514.42176025 1079.65274207 1509.83439967 1073.78566284 1505.30486202 1067.84432125 C1502.3490014 1064.00170244 1499.28003395 1060.25305815 1496.21111202 1056.50057125 C1492.30206077 1051.72082645 1488.45479179 1046.91111224 1484.71111202 1042.00057125 C1480.98450701 1037.11430957 1477.16080724 1032.32241544 1473.27361202 1027.56307125 C1466.86836337 1019.72071159 1460.60735615 1011.77321197 1454.37712765 1003.79158688 C1447.91582283 995.51923019 1441.35405468 987.33657239 1434.72283077 979.19979 C1429.22258048 972.45018489 1423.80745803 965.63945352 1418.47283077 958.75838375 C1414.8130483 954.06801951 1411.07495526 949.43951767 1407.34636593 944.80379391 C1401.65640657 937.72798965 1396.01058507 930.628752 1390.49846554 923.41316891 C1386.81471713 918.60446098 1383.03423096 913.87651788 1379.24016476 909.15462399 C1375.88801292 904.98035732 1372.57027997 900.78124639 1369.27361202 896.56307125 C1365.30921889 891.49534276 1361.27845946 886.48598565 1357.21111202 881.50057125 C1350.82967481 873.67704376 1344.589123 865.74985325 1338.37712765 857.79158688 C1333.11630961 851.05620378 1327.80692134 844.36831313 1322.39861202 837.75057125 C1317.14173299 831.31680236 1312.02355384 824.78548564 1306.94231319 818.21248531 C1303.09850545 813.25211505 1299.18641057 808.35604539 1295.21111202 803.50057125 C1290.01401293 797.15277625 1284.96026481 790.70485557 1279.94377804 784.21370602 C1276.08197454 779.22909212 1272.14625547 774.31421813 1268.14861202 769.43807125 C1263.08243889 763.25797128 1258.20723881 756.95233382 1253.38152218 750.58333492 C1249.43163692 745.39018939 1245.32227405 740.37811485 1241.10954952 735.3951025 C1238.10140762 731.76475536 1235.24381779 728.03278278 1232.38786983 724.28255367 C1229.03715722 719.89343501 1225.56037634 715.6229908 1222.04704952 711.3638525 C1219.45750825 708.1897158 1216.92293071 704.97661202 1214.39861202 701.75057125 C1207.06174145 692.37819405 1199.65751743 683.05989929 1192.08611202 673.87557125 C1188.53551602 669.55504314 1185.1181817 665.14329027 1181.72893429 660.69637203 C1177.69852417 655.43339457 1173.514004 650.3008548 1169.32195187 645.16634274 C1165.37784491 640.33244245 1161.52133014 635.44065925 1157.71111202 630.50057125 C1154.48633325 626.34083499 1151.23942976 622.19980237 1147.96111202 618.08211422 C1146.9043744 616.74509345 1145.86789813 615.39209632 1144.83611202 614.0357275 C1139.54256927 607.4060742 1132.19182289 602.72512858 1123.71111202 601.50057125 C1113.97187962 600.46782043 1106.82635473 601.93041154 1098.71111202 607.50057125 C1091.80561582 613.21227079 1086.42059153 620.19542231 1081.08611202 627.3326025 C1077.73190446 631.80671818 1074.2194325 636.14712904 1070.71111202 640.50057125 C1069.37714083 642.16672743 1068.04381287 643.83339879 1066.71111202 645.50057125 C1064.73831015 647.96849266 1062.76396057 650.43499198 1060.78142452 652.8951025 C1057.13481325 657.4277378 1053.55324478 662.00112511 1050.02361202 666.62557125 C1045.63992448 672.36513558 1041.10058632 677.96745408 1036.52873898 683.55770016 C1033.18583373 687.65564513 1029.91744319 691.79486414 1026.71111202 696.00057125 C1022.44903303 701.58893739 1018.04471903 707.04685638 1013.59783077 712.4888525 C1010.08775072 716.78993651 1006.62690325 721.12430382 1003.21111202 725.50057125 C999.18761023 730.65450308 995.09366429 735.7461823 990.96111202 740.81307125 C987.08616663 745.56527833 983.24002574 750.33130481 979.49626827 755.18807125 C970.66267109 766.63115557 961.61296911 777.90462197 952.56267452 789.1763525 C949.31861787 793.22149253 946.09579277 797.28162049 942.90080929 801.36556149 C937.85731999 807.81096378 932.73330658 814.18398283 927.55925655 820.52498531 C923.03639163 826.07730328 918.60328562 831.69573656 914.19158077 837.33650875 C912.05037722 840.07326262 909.88669543 842.79102113 907.71111202 845.50057125 C904.60087997 849.3757181 901.52612548 853.27718317 898.46111202 857.18807125 C889.67160732 868.395227 880.76377996 879.50478014 871.71111202 890.50057125 C868.01120437 887.75133432 865.38742092 884.99322197 862.71111202 881.25057125 C859.03620399 876.23043898 855.21973343 871.37255061 851.27361202 866.56307125 C847.34222423 861.76333194 843.47184319 856.93538435 839.71111202 852.00057125 C835.90445719 847.00782985 831.99350896 842.11438588 828.02361202 837.25057125 C822.51800827 830.50161405 817.09154053 823.71939877 811.90642452 816.71932125 C805.60237906 808.12265458 805.60237906 808.12265458 798.71111202 800.00057125 C794.61107391 795.54547829 791.08402121 790.72450754 787.48894405 785.8626318 C783.80907028 780.90842498 780.00000217 776.08415237 776.08611202 771.31307125 C771.33989499 765.52614616 766.71801561 759.66743203 762.17595577 753.71932125 C755.53231025 745.0217958 748.71712122 736.46624229 741.76189327 728.01619625 C739.27073799 724.9603791 736.85398117 721.85213906 734.44548702 718.73104 C732.62058163 716.38414591 730.76302994 714.06617831 728.89861202 711.75057125 C725.85113753 707.95294919 722.86010384 704.11540209 719.89861202 700.25057125 C712.12026427 690.10385949 704.19093373 680.08004036 696.19206905 670.10652828 C692.38213978 665.35180544 688.61273573 660.56662111 684.85564327 655.7701025 C681.50058834 651.49216713 678.11253826 647.24170069 674.71111202 643.00057125 C667.81098032 634.39254089 660.98530077 625.72803895 654.22673702 617.00838375 C648.51277066 609.63790548 642.77868092 602.30564539 636.83611202 595.11775875 C634.48753122 592.22520519 632.21876361 589.27654686 629.96111202 586.31307125 C625.53134164 580.50058784 620.94354445 574.82696482 616.32195187 569.16634274 C612.99927076 565.09406241 609.72006308 560.9960586 606.51189327 556.8326025 C604.11579165 553.72962491 601.69551168 550.64593491 599.27361202 547.56307125 C598.5546777 546.64775631 598.5546777 546.64775631 597.82121944 545.71395016 C595.19797422 542.37836782 592.55929054 539.05643576 589.89861202 535.75057125 C586.13425418 531.06448793 582.45542542 526.31400229 578.77361202 521.56307125 C574.21998565 515.6891948 569.62669053 509.86528054 564.87126827 504.152915 C561.75043955 500.32101138 558.7360967 496.40832579 555.71111202 492.50057125 C554.55637562 491.01212588 553.40143094 489.52384207 552.24626827 488.0357275 C551.67811398 487.3037817 551.10995968 486.5718359 550.52458858 485.81770992 C545.60303108 479.4804841 540.66389093 473.16252184 535.62908077 466.91463375 C533.307105 463.99206547 531.04008634 461.02867632 528.77361202 458.06307125 C524.94994594 453.06216449 521.0107375 448.17472196 516.99626827 443.32479 C514.91807215 440.75635274 512.91586956 438.14883255 510.9291296 435.51009274 C503.03091165 425.0428834 495.35908747 415.52624479 481.71111202 413.50057125 C472.29579565 412.72002689 462.81117903 415.00673872 455.33611202 421.00057125 C451.51137055 424.45983743 448.36500182 428.42937896 445.15642452 432.45369625 C442.6088224 435.62802477 439.98328151 438.72213497 437.33611202 441.81307125 C433.5343711 446.27065062 429.86519899 450.80980407 426.27361202 455.43807125 C422.01857811 460.91776188 417.59141787 466.2162188 413.05119991 471.46126461 C410.0487182 474.9315896 407.10231395 478.43614721 404.21111202 482.00057125 C400.74313481 486.27564134 397.1832709 490.45959289 393.58611202 494.62557125 C389.8410988 498.96888306 386.21288595 503.35636962 382.73064327 507.91463375 C375.05978572 517.73689235 366.97676126 527.24252721 358.83611202 536.6763525 C355.33345715 540.74547447 351.94525496 544.89139367 348.61345577 549.10213375 C345.48182713 553.05042942 342.27965373 556.94062296 339.08025265 560.83406734 C338.09404066 562.03447444 337.10843758 563.23538188 336.1232214 564.43660641 C329.62973229 572.35309727 323.10993189 580.24213598 316.47331905 588.03914547 C313.16700235 591.93390563 309.9738663 595.90728007 306.80095577 599.9107275 C303.88020036 603.53028047 300.86514898 607.0666075 297.8522253 610.60945797 C293.4011951 615.84931734 289.04767855 621.16565848 284.71111202 626.50057125 C279.91270813 632.40364366 275.07663259 638.26799002 270.14861202 644.06307125 C266.23777913 648.66389257 262.41516546 653.32163172 258.66033077 658.0513525 C252.81744366 665.39301626 246.80530889 672.58719253 240.72746944 679.73421383 C238.00124473 682.94891695 235.329528 686.19676214 232.71111202 689.50057125 C229.18355032 693.95150288 225.53089159 698.28377103 221.8522253 702.60945797 C217.40117537 707.84934057 213.04887795 713.16660954 208.71111202 718.50057125 C205.71511854 722.17052168 202.71471531 725.83684728 199.71111202 729.50057125 C199.18855831 730.13801266 198.6660046 730.77545406 198.12761593 731.43221188 C192.18073509 738.68193694 186.22849017 745.92426229 180.14861202 753.06307125 C174.3793082 759.84018832 168.78507871 766.75665923 163.18767452 773.67586422 C157.47129808 780.74005032 151.68320795 787.73486411 145.80095577 794.66097164 C141.36975076 799.88579058 137.03321592 805.18523701 132.71111202 810.50057125 C128.0720431 816.19061508 123.41606089 821.86481333 118.71111202 827.50057125 C114.86308875 832.10993655 111.04837248 836.74465872 107.25017452 841.3951025 C99.41994431 850.97775223 91.56294131 860.53546731 83.54802608 869.96443844 C79.19934052 875.08679675 74.94927443 880.28671678 70.71111202 885.50057125 C65.93139384 891.38065621 61.11634937 897.22495389 56.21111202 903.00057125 C49.96233325 910.35966573 43.83895668 917.81417869 37.83611202 925.37557125 C34.260205 929.86145063 30.56856437 934.23933347 26.85271358 938.60896969 C22.40138022 943.84891297 18.04902195 949.16643246 13.71111202 954.50057125 C10.71511854 958.17052168 7.71471531 961.83684728 4.71111202 965.50057125 C3.92728146 966.45673336 3.92728146 966.45673336 3.12761593 967.43221188 C-3.25128184 975.20860024 -9.65344517 982.96013803 -16.17511845 990.61727047 C-20.34388914 995.52932216 -24.39269799 1000.53576382 -28.44220829 1005.54622555 C-32.38774951 1010.41822873 -36.40989552 1015.21765539 -40.47638798 1019.9888525 C-43.80226708 1023.89993028 -47.01372061 1027.88901003 -50.19904423 1031.91463375 C-53.10474391 1035.51009765 -56.1231134 1039.00615142 -59.13239384 1042.51497555 C-63.18011139 1047.27770273 -66.87591679 1052.25061333 -70.51154423 1057.3326025 C-71.09806767 1058.04803219 -71.6845911 1058.76346188 -72.28888798 1059.50057125 C-72.94888798 1059.50057125 -73.60888798 1059.50057125 -74.28888798 1059.50057125 C-74.33572624 972.0272593 -74.38148847 884.5539446 -74.4159174 771.4661932 C-74.41633575 770.03121296 -74.4167541 768.59623272 -74.41717246 767.16125248 C-74.42594064 737.04020061 -74.43409078 706.9191486 -74.44152701 676.79809638 C-74.44526318 661.6671451 -74.4491181 646.53619385 -74.4530853 631.40524263 C-74.45368305 629.12280519 -74.4542774 626.84036776 -74.45487162 624.55793032 C-74.46405084 589.41437796 -74.47577591 554.27082873 -74.49488163 519.12728024 C-74.49549767 517.99397717 -74.49549767 517.99397717 -74.49612616 516.8377791 C-74.50276322 504.65642309 -74.50961407 492.47506721 -74.5164933 480.29371134 C-74.53630594 445.2047965 -74.55453599 410.11588406 -74.56230736 375.02696419 C-74.56246796 374.30528309 -74.56262857 373.58360199 -74.56279404 372.84005177 C-74.56629145 356.99683173 -74.56897596 341.15361166 -74.57089093 325.31039135 C-74.57167578 318.93546766 -74.57257765 312.56054398 -74.57351971 306.18562031 C-74.57361999 305.48791573 -74.57372027 304.79021114 -74.57382359 304.071364 C-74.57711206 281.59680828 -74.58992235 259.12227038 -74.6077346 236.64772186 C-74.62613429 213.37540023 -74.63393025 190.10310068 -74.62939211 166.83076981 C-74.62710757 153.41167494 -74.63321867 139.99264461 -74.65128061 126.57356137 C-74.66252016 117.6121806 -74.66288604 108.65084215 -74.65438342 99.68945846 C-74.64984927 94.58175089 -74.65006847 89.4741655 -74.66353752 84.36647097 C-74.67570617 79.71658889 -74.67396989 75.06692399 -74.6613079 70.41704512 C-74.65917138 68.74840548 -74.66202743 67.07974973 -74.67059371 65.41113072 C-74.73946021 51.08426038 -73.14196564 38.8108011 -65.28888798 26.50057125 C-64.83642704 25.78127438 -64.3839661 25.0619775 -63.91779423 24.32088375 C-55.78524586 12.47915611 -41.40484054 4.01903684 -27.52208503 0.87254376 C-18.51476493 -0.62776069 -9.09636679 -0.03786195 0 0 Z " fill="#CBCBCB" transform="translate(310.2888879776001,235.49942874908447)"/>
<path d="M0 0 C2.59932769 -0.00356821 5.19865346 -0.00889024 7.79797441 -0.01580173 C13.45543374 -0.02801379 19.11273511 -0.02544975 24.77019195 -0.01311235 C33.23949576 0.00527942 41.70868001 0.00045066 50.1779931 -0.00881079 C64.61404219 -0.02392429 79.05003069 -0.02011163 93.48607826 -0.00596046 C108.11255906 0.00830482 122.73900456 0.01384541 137.36549187 0.00876045 C138.28976003 0.00844472 139.21402819 0.00812899 140.16630447 0.0078037 C144.87928414 0.00615565 149.59226375 0.00436992 154.30524335 0.00253894 C188.40899228 -0.01039988 222.51271504 -0.00370449 256.6164608 0.01372719 C290.39378933 0.03096104 324.17110551 0.0407907 357.94843864 0.04039192 C360.06922487 0.04037608 362.1900111 0.04036063 364.31079733 0.04034559 C372.8331611 0.04027084 381.35552488 0.04013799 389.87788865 0.03993396 C413.70125267 0.03937871 437.52461654 0.04015617 461.3479805 0.04191208 C462.43284397 0.04199142 463.51770744 0.04207077 464.63544556 0.04215251 C499.2051825 0.0447685 533.77491554 0.05311137 568.34465027 0.06562805 C569.46594589 0.06603393 570.58724151 0.06643981 571.74251578 0.06685799 C589.95202705 0.07347557 608.16153817 0.08046612 626.37104929 0.08747542 C698.60876652 0.11525879 770.8464697 0.12854139 843.08419228 0.12717247 C845.36791237 0.12713169 847.65163246 0.12709126 849.93535255 0.12705119 C854.49736065 0.12697083 859.05936875 0.12688928 863.62137686 0.12680697 C873.85003605 0.12662414 884.07869523 0.12645543 894.30735442 0.1263138 C896.57278059 0.12628226 898.83820675 0.12624938 901.10363292 0.12621514 C961.59790965 0.12532493 1022.09218446 0.13425687 1082.58645976 0.14691961 C1084.17023395 0.14725012 1084.17023395 0.14725012 1085.78600358 0.14758731 C1105.03259537 0.15160471 1105.03259537 0.15160471 1114.44820188 0.1536365 C1137.68184442 0.15862979 1160.91548629 0.16251038 1184.14912939 0.1632638 C1185.19670224 0.16329886 1186.2442751 0.16333392 1187.32359258 0.16337004 C1191.54565741 0.16350845 1195.76772224 0.16363896 1199.98978707 0.163765 C1239.13397025 0.16493618 1278.27814194 0.17245114 1317.42232029 0.1927224 C1321.17168039 0.19463762 1324.9210405 0.19652428 1328.67040062 0.19838905 C1330.05066498 0.19908065 1330.05066498 0.19908065 1331.45881347 0.19978622 C1346.05076436 0.20692473 1360.6427075 0.20738793 1375.23465963 0.20511739 C1389.56980241 0.20303317 1403.90492786 0.20808316 1418.2400653 0.22081765 C1426.65234608 0.22808105 1435.06458543 0.2298671 1443.4768673 0.22366163 C1449.71015566 0.2196725 1455.94339216 0.22603018 1462.17667205 0.23653268 C1464.69151065 0.23914644 1467.20635548 0.23836935 1469.72119147 0.23389947 C1473.1227542 0.22833745 1476.52407995 0.23499229 1479.92562807 0.24477828 C1480.90333113 0.24023306 1481.88103419 0.23568785 1482.88836462 0.2310049 C1499.04639077 0.32209686 1515.1120387 7.20848153 1526.87374306 18.24777794 C1539.31671523 31.40615714 1542.9908124 46.11110535 1542.81905556 63.72824669 C1542.81622566 64.84468056 1542.81339577 65.96111443 1542.81048012 67.11137962 C1542.79939013 70.63612691 1542.77430686 74.16060898 1542.74874306 77.68527794 C1542.73869879 80.09217528 1542.72957549 82.49907665 1542.72139931 84.90598106 C1542.69948756 90.77000205 1542.66612337 96.63387104 1542.62374306 102.49777794 C1541.40928395 102.49817812 1540.19482484 102.4985783 1538.94356394 102.49899061 C1497.36047565 102.51271569 1455.7773876 102.52710586 1414.1942997 102.54196739 C1413.35657403 102.54226673 1412.51884837 102.54256607 1411.65573708 102.54287448 C1321.88932712 102.57496851 1232.1229202 102.61143872 1142.35651588 102.65675926 C1140.36247037 102.65776489 1138.36842485 102.65877051 1136.37437933 102.65977613 C1094.51846367 102.68089787 1052.66254835 102.70263511 1010.80663338 102.72508332 C989.78089344 102.73635921 968.75515345 102.74751683 947.72941339 102.75856263 C944.55776794 102.76022953 941.3861225 102.7618998 938.21447705 102.76357022 C889.37797961 102.78926127 840.54148258 102.81241653 791.70498085 102.82822227 C790.65502298 102.82856214 789.60506511 102.828902 788.52329034 102.82925216 C771.59495618 102.83471633 754.66662195 102.8399676 737.73828772 102.84519061 C688.97701467 102.86023849 640.21574445 102.87686169 591.45447636 102.9039011 C590.45164747 102.90445643 589.44881859 102.90501176 588.41560095 102.90558391 C566.40057571 102.91780327 544.38555103 102.93083218 522.37052673 102.94462751 C513.51229447 102.9501641 504.65406213 102.95558417 495.79582977 102.9609642 C494.34159138 102.96185165 494.34159138 102.96185165 492.85797444 102.96275702 C461.62570622 102.98175848 430.39344395 102.9912759 399.16117055 102.99581389 C367.69714904 103.000429 336.23314652 103.01435559 304.76913569 103.04120427 C300.41988967 103.04491322 296.07064356 103.04851551 291.7213974 103.05205345 C290.86883062 103.05275084 290.01626384 103.05344822 289.13786171 103.05416674 C275.64473045 103.06492773 262.15161815 103.06564006 248.65848384 103.06214595 C235.38626267 103.05891601 222.11408293 103.06635852 208.84187421 103.08510205 C201.06366218 103.09576623 193.2855517 103.09829013 185.50733775 103.08864341 C179.72670219 103.08239154 173.94617535 103.09180481 168.16556087 103.10721861 C165.84590272 103.11100273 163.52622955 103.10980401 161.20657849 103.10293395 C139.31614777 103.04321853 118.43631549 105.4594079 98.62374306 115.49777794 C97.74331337 115.93863731 96.86288368 116.37949669 95.95577431 116.83371544 C84.33308596 122.90501873 74.09008657 130.44087835 64.62374306 139.49777794 C63.96116493 140.097192 63.29858681 140.69660606 62.61593056 141.31418419 C43.32976661 159.39008279 30.73330118 187.2633143 28.62374306 213.49777794 C28.47335589 218.67236793 28.48119026 223.84571311 28.48507786 229.0219326 C28.48262867 230.61901073 28.47974427 232.21608825 28.47646508 233.81316489 C28.46870063 238.21021639 28.46712349 242.60725181 28.46653766 247.00430933 C28.46480813 251.78469575 28.45732248 256.56507369 28.45056111 261.34545517 C28.43950273 269.72627931 28.43213179 278.10710043 28.42716217 286.4879303 C28.41975587 298.94994958 28.40667264 311.41195836 28.39241642 323.87397145 C28.3685973 344.83631891 28.34939672 365.79866824 28.33281708 386.76102257 C28.31638316 407.52009906 28.29790338 428.27917207 28.27668381 449.03824425 C28.2753662 450.32838318 28.27404859 451.61852212 28.27269106 452.94775617 C28.26598909 459.49956635 28.25925049 466.05137648 28.2524978 472.60318661 C28.23878501 485.92638752 28.22539485 499.24958876 28.21214581 512.57279015 C28.21148267 513.23938311 28.21081953 513.90597608 28.2101363 514.59276883 C28.1779072 547.01764593 28.14933251 579.4425261 28.12105751 611.86740685 C28.11124358 623.11938034 28.10141349 634.37135383 28.09151649 645.62332726 C28.0909027 646.32117701 28.0902889 647.01902676 28.0896565 647.73802347 C28.0610997 680.18014127 28.02994664 712.62225641 27.99812398 745.06437114 C27.99605804 747.1705734 27.99399322 749.27677566 27.99192863 751.38297792 C27.97824467 765.34090633 27.96451596 779.29883469 27.95075729 793.25676303 C27.92272903 821.69134914 27.89498484 850.12593553 27.86741066 878.56052208 C27.86614246 879.86793395 27.86487426 881.17534582 27.86356763 882.52237622 C27.77889401 969.84750575 27.70080614 1057.17264141 27.62374306 1144.49777794 C20.56200716 1144.54881534 13.50031947 1144.58365223 6.43844032 1144.60764122 C4.03998474 1144.61765026 1.64154121 1144.63126158 -0.75687218 1144.64865685 C-4.21987459 1144.67313036 -7.68271456 1144.68431237 -11.14578819 1144.69309044 C-12.7339711 1144.7085743 -12.7339711 1144.7085743 -14.35423851 1144.72437096 C-30.70703303 1144.72679227 -44.22947995 1140.45730341 -56.13406944 1128.86496544 C-67.27586068 1117.10202904 -74.62182646 1103.37182039 -74.62925661 1086.82729143 C-74.6323097 1086.09394808 -74.6353628 1085.36060473 -74.63850841 1084.60503885 C-74.64628732 1082.15353025 -74.63988493 1079.70226971 -74.63352585 1077.25076008 C-74.63621987 1075.46550715 -74.63978807 1073.68025536 -74.64415032 1071.89500573 C-74.65361698 1066.97535924 -74.65060484 1062.05578671 -74.64559477 1057.13613656 C-74.64233183 1051.78904553 -74.65060762 1046.44197043 -74.65741313 1041.09488446 C-74.66772914 1031.71861039 -74.67055414 1022.34235698 -74.6685009 1012.9660778 C-74.66545506 999.02304474 -74.67376567 985.08003459 -74.68425015 971.13700598 C-74.7036101 944.7868338 -74.70922037 918.43667039 -74.71036427 892.08649205 C-74.71049376 889.17987052 -74.71062964 886.27324899 -74.71077108 883.36662745 C-74.71080509 882.64534053 -74.7108391 881.9240536 -74.71087414 881.1809095 C-74.71169106 865.19715555 -74.71607093 849.21340318 -74.72108277 833.22965007 C-74.7231395 826.64800667 -74.72511956 820.06636324 -74.72711527 813.48471981 C-74.72733645 812.75750076 -74.72755763 812.03028171 -74.72778551 811.28102572 C-74.74043423 769.60595693 -74.74868369 727.93088917 -74.7477684 686.25581837 C-74.74773685 684.69612169 -74.74770537 683.13642502 -74.74767399 681.57672835 C-74.74752722 674.53483667 -74.74735088 667.492945 -74.74716622 660.45105333 C-74.74708397 657.31090097 -74.74700368 654.17074861 -74.74692359 651.03059625 C-74.7468828 649.45889295 -74.74684076 647.88718966 -74.74679747 646.31548636 C-74.74543713 596.6219249 -74.7600688 546.92839195 -74.78787804 497.23483849 C-74.79488013 484.71567321 -74.80181907 472.19650791 -74.80840683 459.67734241 C-74.80881258 458.90647826 -74.80921833 458.13561411 -74.80963637 457.34139043 C-74.82206768 433.58000547 -74.82959776 409.81862285 -74.8321228 386.05723476 C-74.8322027 385.31114001 -74.83228261 384.56504526 -74.83236493 383.79634158 C-74.83407154 367.41713056 -74.83459385 351.03791969 -74.83402418 334.6587086 C-74.83383121 328.79777405 -74.83372712 322.9368395 -74.83366672 317.07590496 C-74.83365089 315.61786193 -74.83363048 314.15981891 -74.83360547 312.70177589 C-74.83325293 289.47600464 -74.84464473 266.2502578 -74.8619131 243.02449354 C-74.8797013 218.97729262 -74.88285341 194.93013614 -74.86928885 170.88293099 C-74.86189081 157.01984468 -74.8655832 143.15686529 -74.88517353 129.29379028 C-74.89715404 120.03418351 -74.89460389 110.77465436 -74.88023253 101.51505118 C-74.8724533 96.23877111 -74.87096462 90.96269828 -74.88714723 85.68643265 C-74.90175571 80.88131665 -74.89777296 76.07657955 -74.8792995 71.27148013 C-74.87587196 69.54893018 -74.87906414 67.82635019 -74.88990191 66.10383092 C-75.00177123 47.03862166 -71.08598801 32.11054885 -57.73953819 17.82199669 C-40.69292849 1.05714913 -22.7896438 -0.09783177 0 0 Z " fill="#CACACA" transform="translate(141.37625694274902,66.50222206115723)"/>
<path d="M0 0 C4.40152643 1.52830779 6.44502099 4.96676615 9 8.625 C9.979533 9.99415953 10.96003436 11.36262669 11.94140625 12.73046875 C12.44559082 13.4373584 12.94977539 14.14424805 13.46923828 14.87255859 C15.90976122 18.26437947 18.42253864 21.60070434 20.9375 24.9375 C21.94401346 26.27734146 22.95052386 27.61718523 23.95703125 28.95703125 C25.99372955 31.66454944 28.03342132 34.36978951 30.07421875 37.07421875 C35.26503002 43.96216937 40.37717024 50.89025081 45.35864258 57.93115234 C48.47858477 62.32061402 51.73792958 66.58773025 55.04833984 70.8359375 C58.56342441 75.37292767 61.91258927 80.0188271 65.25 84.6875 C70.38692752 91.86741062 75.7291374 98.85793008 81.18164062 105.80029297 C84.71452479 110.30999769 88.0900773 114.8804242 91.3203125 119.61328125 C93.73003963 123.03733538 96.31642187 126.31873518 98.88769531 129.62231445 C102.53535427 134.33716565 106.02693543 139.15557484 109.5 144 C114.00764075 150.28351661 118.61755004 156.45257244 123.36328125 162.55859375 C126.52298383 166.65225833 129.56901713 170.82869181 132.625 175 C137.75423323 181.99961211 142.97198469 188.92445362 148.25 195.8125 C153.13822896 202.19390293 157.93431489 208.6172215 162.56445312 215.18798828 C165.59049121 219.46894216 168.75702847 223.62437015 171.97460938 227.76245117 C176.31248454 233.36108397 180.4954019 239.07117952 184.68652344 244.7800293 C188.42913375 249.8752623 192.19759917 254.94924937 196 260 C200.35349823 265.78286411 204.65499554 271.60189591 208.9375 277.4375 C214.05234554 284.40419932 219.25717892 291.29437003 224.52490234 298.14599609 C228.0708167 302.76451411 231.53024428 307.43525563 234.93359375 312.16015625 C237.46149166 315.63422388 240.04124132 319.06738156 242.625 322.5 C247.11970891 328.47359927 251.57238233 334.47651519 256 340.5 C263.01948336 350.04676746 270.12443803 359.52741687 277.25390625 368.9921875 C281.81074467 375.05118813 286.32045316 381.14285565 290.8125 387.25 C296.72010706 395.28116306 302.67939853 403.27165775 308.67431641 411.23779297 C310.61913442 413.82300409 312.5595199 416.41153192 314.5 419 C315.57314453 420.43085937 315.57314453 420.43085937 316.66796875 421.890625 C318.37890625 424.171875 320.08984375 426.453125 321.80078125 428.734375 C322.29199463 429.38929932 322.78320801 430.04422363 323.28930664 430.71899414 C324.30812817 432.07747728 325.32684494 433.436039 326.34545898 434.79467773 C328.91015728 438.215221 331.47656504 441.63445228 334.046875 445.05078125 C335.05223578 446.38790622 336.05744483 447.7251453 337.0625 449.0625 C337.80415405 450.04935791 337.80415405 450.04935791 338.56079102 451.05615234 C342.45866948 456.25374941 346.29476973 461.49476986 350.11279297 466.7512207 C353.45419243 471.3261504 356.97008189 475.72626884 360.63671875 480.046875 C362 482 362 482 362 485 C293.0253545 485.06856973 224.05070493 485.13216606 155.07603455 485.16937256 C154.05491206 485.16992479 153.03378957 485.17047702 151.98172398 485.17104598 C129.7890772 485.18301808 107.59643006 485.19409874 85.40378237 485.20426132 C74.52024611 485.20925059 63.63670995 485.21443682 52.75317383 485.21972656 C51.67014094 485.2202496 50.58710805 485.22077263 49.47125598 485.22131152 C14.37775478 485.23835175 -20.71572062 485.26839314 -55.80920619 485.30518888 C-91.87742043 485.34293788 -127.9456204 485.3675461 -164.01385405 485.37565996 C-169.11021937 485.37681255 -174.20658465 485.3781151 -179.30294991 485.37950897 C-180.30597096 485.37977866 -181.30899202 485.38004836 -182.34240766 485.38032622 C-198.47725481 485.38504997 -214.61205779 485.40359379 -230.74688695 485.42732814 C-246.97451537 485.45090324 -263.20210007 485.45986537 -279.42974501 485.45400551 C-289.06655846 485.45096715 -298.70321169 485.45903876 -308.33999616 485.48319017 C-314.78531405 485.49823702 -321.23052755 485.49862154 -327.67585277 485.48732725 C-331.3432745 485.4813133 -335.0103942 485.48144274 -338.677783 485.49953273 C-374.87433213 485.66747656 -374.87433213 485.66747656 -391 476 C-389.48888477 471.1680507 -386.74062853 468.07472883 -383.4375 464.375 C-382.34274575 463.12457643 -381.24900432 461.87326545 -380.15625 460.62109375 C-379.34800781 459.69852783 -379.34800781 459.69852783 -378.5234375 458.75732422 C-376.44363926 456.35822362 -374.43673104 453.90394264 -372.4375 451.4375 C-369.13627354 447.36938246 -365.7724911 443.36245733 -362.375 439.375 C-359.33859901 435.8077343 -356.34826708 432.2204637 -353.5 428.5 C-350.20358348 424.19415449 -346.70627948 420.06935106 -343.19189453 415.94189453 C-338.72102121 410.68735564 -334.35173302 405.35357084 -330 400 C-324.73978271 393.52879744 -319.41843127 387.11861568 -314.01611328 380.76611328 C-310.62778426 376.77056534 -307.3469433 372.7002399 -304.09375 368.59375 C-301.14916916 364.94598567 -298.10548467 361.3854602 -295.06640625 357.81640625 C-291.6551301 353.80036092 -288.3534799 349.70907849 -285.08203125 345.578125 C-282.66915824 342.59032727 -280.18200298 339.6694698 -277.6875 336.75 C-273.86446845 332.2714028 -270.17157893 327.7149958 -266.5625 323.0625 C-262.30820238 317.5835381 -257.88132001 312.28619311 -253.34228516 307.04150391 C-249.56729489 302.67762988 -245.89897086 298.23744436 -242.26171875 293.7578125 C-239.79204175 290.74642742 -237.27526282 287.77717386 -234.75 284.8125 C-230.02792383 279.26353953 -225.42766468 273.6224821 -220.84790039 267.95581055 C-216.90190897 263.08335365 -212.87940539 258.28340035 -208.8125 253.51171875 C-205.48426452 249.59786999 -202.27126892 245.60526829 -199.08203125 241.578125 C-196.66915824 238.59032727 -194.18200298 235.6694698 -191.6875 232.75 C-187.86446845 228.2714028 -184.17157893 223.7149958 -180.5625 219.0625 C-176.30945783 213.58515496 -171.88335506 208.28988934 -167.34667969 203.04589844 C-162.79343184 197.78074213 -158.38367983 192.40707567 -154 187 C-151.45310047 183.87908334 -148.90197442 180.76164435 -146.34863281 177.64599609 C-145.37621108 176.45916277 -144.4042642 175.27194032 -143.43261719 174.08447266 C-137.3008361 166.59420627 -131.14964067 159.13033916 -124.8125 151.8125 C-120.40533482 146.71971124 -116.20404376 141.49979028 -112.07348633 136.18115234 C-107.66747526 130.52657354 -103.04926246 125.06689973 -98.38818359 119.62207031 C-92.22646313 112.42219857 -86.10511092 105.19919069 -80.2109375 97.77734375 C-72.67242309 88.30758448 -65.01715013 78.95252897 -57.09863281 69.79785156 C-53.902389 66.09054945 -50.86859189 62.29690426 -47.90234375 58.40234375 C-44.87456864 54.57876738 -41.66290842 50.91491799 -38.47485352 47.22485352 C-34.90112373 43.07870088 -31.45154466 38.85445051 -28.05859375 34.55859375 C-25.59187912 31.49275298 -23.05112966 28.49563481 -20.5 25.5 C-13.42728506 17.18650039 -6.67472235 8.63542204 0 0 Z " fill="#989898" transform="translate(654,895)"/>
<path d="M0 0 C0.66 0 1.32 0 2 0 C3.41915651 1.7191896 4.75938566 3.5037681 6.0625 5.3125 C9.06678475 9.42471346 12.12744911 13.44868172 15.375 17.375 C20.21448127 23.23110842 24.90019491 29.20008927 29.57958984 35.18408203 C36.33994176 43.82682826 43.12798485 52.4456243 50 61 C54.51400788 66.61909695 58.99428742 72.2623615 63.4375 77.9375 C66.76484472 82.18688688 70.12742739 86.39914345 73.5625 90.5625 C77.13705468 94.90257878 80.57398426 99.3322879 83.98193359 103.80395508 C88.01377039 109.06855886 92.19893897 114.20340017 96.39355469 119.33862305 C99.67462145 123.35836692 102.89596566 127.41354932 106.05859375 131.52734375 C109.3793767 135.7568319 112.795777 139.90969976 116.20703125 144.06640625 C119.40261295 147.97556445 122.47630734 151.95049968 125.48852539 156.00219727 C128.048941 159.38644552 130.7458062 162.65742288 133.4375 165.9375 C137.41964059 170.81475508 141.37313854 175.70530708 145.21875 180.69140625 C151.51108555 188.8466043 157.9083487 196.90844276 164.4375 204.875 C169.41273949 210.94755579 174.1514016 217.16292019 178.81860352 223.47412109 C182.09794851 227.87914586 185.55601899 232.02008034 189.2734375 236.06640625 C191.50653811 238.56727685 193.473661 241.21873599 195.453125 243.921875 C197.16583362 246.22278658 198.94938671 248.45473952 200.75 250.6875 C203.8695571 254.56169282 206.91841144 258.48485837 209.9375 262.4375 C213.75020089 267.42239049 217.67336313 272.29952677 221.66796875 277.140625 C224.23748385 280.29118623 226.74781451 283.48344924 229.25 286.6875 C233.29326925 291.86351394 237.40628695 296.97679994 241.5625 302.0625 C246.28968756 307.84992031 250.87839856 313.71819196 255.41015625 319.66015625 C258.88241969 324.17369198 262.50126385 328.56824794 266.10449219 332.97729492 C270.17120155 337.96003236 274.16196145 342.99669098 278.11914062 348.06665039 C280.84108791 351.5470673 283.61508987 354.97493322 286.4375 358.375 C290.1326087 362.85151161 293.60850101 367.46261271 297.0625 372.125 C300.85540801 377.24223574 304.70694959 382.17357217 309.0859375 386.8125 C311.35071674 389.40081913 313.36322698 392.13356902 315.41162109 394.89453125 C317.88686919 398.1755856 320.50945174 401.33056619 323.125 404.5 C327.62112135 409.98411636 331.96774034 415.55071798 336.1875 421.25 C340.45834416 427.01661406 344.89885903 432.55299226 349.53125 438.03515625 C352.29274421 441.35157098 354.97656005 444.71804458 357.625 448.125 C358.06344238 448.6821167 358.50188477 449.2392334 358.95361328 449.81323242 C362 453.76345836 362 453.76345836 362 456 C310.06623442 456.29753221 258.13255493 456.52661346 206.19810475 456.66384928 C200.06728979 456.68010854 193.93647651 456.69693472 187.80566406 456.71411133 C186.58512573 456.71752136 185.36458739 456.7209314 184.10706304 456.72444477 C164.34215309 456.78101763 144.57773451 456.88351968 124.81311609 457.00298635 C104.53389592 457.12454151 84.25493315 457.19676084 63.97536361 457.22315043 C51.4606801 457.24099165 38.94738536 457.29734423 26.43312936 457.40291407 C17.8524549 457.47161452 9.27249871 457.49240587 0.69156916 457.47551791 C-4.26037384 457.46718728 -9.20989004 457.47998101 -14.16140175 457.54967117 C-18.69798236 457.61305461 -23.23051157 457.61607287 -27.76728083 457.57168563 C-29.40548396 457.56620287 -31.04394228 457.5826153 -32.68164478 457.62348137 C-44.59194763 457.90332886 -44.59194763 457.90332886 -48.62795034 454.71326517 C-52.02781739 451.18506858 -54.49463044 447.1880336 -57 443 C-57.99854012 441.66689182 -59.01327 440.34509977 -60.06640625 439.0546875 C-60.69289063 438.25514648 -60.69289063 438.25514648 -61.33203125 437.43945312 C-61.73808594 436.92318359 -62.14414063 436.40691406 -62.5625 435.875 C-63.01882813 435.29427734 -63.47515625 434.71355469 -63.9453125 434.11523438 C-67.46811492 429.64549481 -71.06639654 425.24135376 -74.68359375 420.84765625 C-77.83250687 416.97656407 -80.90857399 413.05034504 -83.984375 409.12109375 C-86.63761657 405.73207931 -89.30516098 402.35614921 -92 399 C-98.72244679 390.61752043 -105.35538351 382.16612096 -111.875 373.625 C-118.50924943 364.95170432 -125.43176543 356.50264618 -132.40625 348.1015625 C-137.22409627 342.28872624 -141.77486846 336.32051099 -146.27319336 330.26049805 C-150.45994137 324.65063891 -154.83397726 319.21456283 -159.27319336 313.8034668 C-163.12197399 309.10506828 -166.86171638 304.33707435 -170.5456543 299.50878906 C-173.5981903 295.51015998 -176.72016132 291.5743561 -179.875 287.65625 C-182.89425183 283.88218521 -185.8694082 280.07382526 -188.84106445 276.26220703 C-191.07114449 273.4121624 -193.32311491 270.59264276 -195.66796875 267.8359375 C-196.47878906 266.87945313 -197.28960938 265.92296875 -198.125 264.9375 C-198.84945313 264.10089844 -199.57390625 263.26429688 -200.3203125 262.40234375 C-202.21178453 259.69709887 -203.04004675 258.31386877 -203 255 C-201.54639866 252.65399784 -200.15182288 250.76322767 -198.375 248.6875 C-197.87935547 248.08357422 -197.38371094 247.47964844 -196.87304688 246.85742188 C-195.80923556 245.56309603 -194.73901703 244.27401483 -193.66308594 242.98974609 C-191.45925202 240.35303934 -189.29642368 237.68413666 -187.1328125 235.0144043 C-186.03830585 233.66410909 -184.94192963 232.31532729 -183.84375 230.96801758 C-178.47482293 224.3801087 -173.22909343 217.69905819 -168 211 C-162.27831683 203.66987881 -156.51425591 196.38401424 -150.625 189.1875 C-146.07386785 183.6243282 -141.65383085 177.97825159 -137.3125 172.25 C-132.83560217 166.34331453 -128.23306909 160.60345134 -123.44921875 154.94140625 C-120.79825955 151.7577184 -118.23490068 148.51656482 -115.6875 145.25 C-111.68408922 140.11711146 -107.61658383 135.04257247 -103.5 130 C-98.42137418 123.77628213 -93.42912964 117.49138258 -88.48046875 111.1640625 C-85.70746486 107.61978053 -82.89169313 104.11054681 -80.07421875 100.6015625 C-78.09775733 98.12261089 -76.14046275 95.62982409 -74.18725586 93.13256836 C-69.66429123 87.35014564 -65.08241561 81.62249502 -60.4375 75.9375 C-56.466207 71.0759186 -52.55593306 66.17969791 -48.75 61.1875 C-45.04205286 56.3271635 -41.22565138 51.57870632 -37.3359375 46.86328125 C-34.27107558 43.10651907 -31.28456803 39.29127448 -28.29711914 35.47290039 C-24.40197248 30.4989525 -20.45900672 25.56472089 -16.50537109 20.63720703 C-12.43106306 15.55331237 -8.3999359 10.43649204 -4.38867188 5.30273438 C-1.10099546 1.10099546 -1.10099546 1.10099546 0 0 Z " fill="#989898" transform="translate(1428,924)"/>
<path d="M0 0 C37.52416376 34.34549677 62.43900507 81.74453212 65 133 C65.48805799 147.7550388 65.59052724 162.43015606 63 177 C62.8870459 177.71365723 62.7740918 178.42731445 62.65771484 179.16259766 C56.05589533 220.69131237 36.74412904 255.91420723 8 286 C7.32582031 286.72703125 6.65164063 287.4540625 5.95703125 288.203125 C-13.18731398 308.28631872 -38.37401941 321.3545227 -64 331 C-65.03382813 331.40089844 -66.06765625 331.80179688 -67.1328125 332.21484375 C-77.40612609 335.94378702 -88.29751181 337.91080225 -99 340 C-99.7002832 340.13712402 -100.40056641 340.27424805 -101.12207031 340.41552734 C-140.50721368 347.76783557 -184.71096192 339.17514774 -220 321 C-221.05501709 320.46101074 -221.05501709 320.46101074 -222.13134766 319.91113281 C-238.53808038 311.43318429 -252.77133818 300.85523756 -266 288 C-266.54817383 287.47229004 -267.09634766 286.94458008 -267.66113281 286.40087891 C-274.30384551 279.9861209 -280.70700156 273.60105646 -286 266 C-286.43135254 265.38560059 -286.86270508 264.77120117 -287.30712891 264.13818359 C-305.47491674 238.10880876 -317.83982652 209.44145892 -323 178 C-323.16991455 177.01894287 -323.3398291 176.03788574 -323.51489258 175.02709961 C-325.02308123 165.61420041 -325.35958789 156.44190049 -325.3125 146.9375 C-325.31067719 146.17098114 -325.30885437 145.40446228 -325.30697632 144.61471558 C-325.25743367 132.20178009 -324.56858197 120.17801115 -322 108 C-321.83371094 107.18644043 -321.66742187 106.37288086 -321.49609375 105.53466797 C-317.46886554 86.38668939 -310.40853879 68.13698137 -301 51 C-300.66419922 50.38495605 -300.32839844 49.76991211 -299.98242188 49.13623047 C-295.6653905 41.33977011 -290.76258419 34.09714326 -285.375 27 C-284.8488208 26.30592041 -284.3226416 25.61184082 -283.78051758 24.89672852 C-280.6029164 20.80375676 -277.22943816 17.08839131 -273.49633789 13.49414062 C-271.84286491 11.90609026 -271.84286491 11.90609026 -270.0625 9.5 C-267.73831679 6.68280823 -265.216796 4.4306705 -262.4375 2.0703125 C-260.6677797 0.56718468 -258.92053067 -0.96252681 -257.1875 -2.5078125 C-237.01492904 -20.33901071 -213.28868392 -32.22948641 -187.62890625 -39.91015625 C-185.54484758 -40.53604685 -183.46544815 -41.17925573 -181.40234375 -41.87109375 C-176.05874569 -43.64007218 -170.66315699 -44.68226169 -165.125 -45.625 C-164.40586426 -45.7482666 -163.68672852 -45.8715332 -162.94580078 -45.99853516 C-105.0686733 -55.33688891 -44.25279113 -38.32455119 0 0 Z " fill="#333333" transform="translate(1360,404)"/>
<path d="M0 0 C0.66 0 1.32 0 2 0 C3.60141977 1.90414562 5.08927092 3.81245961 6.5625 5.8125 C7.4647007 7.01280634 8.36837371 8.21200729 9.2734375 9.41015625 C9.72944336 10.0148877 10.18544922 10.61961914 10.65527344 11.24267578 C13.2450089 14.62701054 15.97671583 17.89429867 18.69921875 21.171875 C21.86545746 25.06382207 24.92925867 29.03252234 28 33 C29.15472419 34.48845484 30.30966894 35.97673861 31.46484375 37.46484375 C32.03291748 38.19670898 32.60099121 38.92857422 33.1862793 39.68261719 C38.0915748 45.99870658 43.00931921 52.30094131 48.0234375 58.53125 C50.47197073 61.58949704 52.89352028 64.66835523 55.3125 67.75 C55.77664307 68.34111572 56.24078613 68.93223145 56.71899414 69.54125977 C59.0927236 72.56575163 61.46364792 75.59241399 63.83203125 78.62109375 C68.02530171 83.97810634 72.23395477 89.31347327 76.5625 94.5625 C81.52744072 100.59325984 86.25795518 106.79396819 91 113 C95.69502728 119.10769036 100.49514616 125.1276987 105.3137207 131.13793945 C111.06308349 138.31505026 116.73813894 145.5499208 122.40283203 152.79394531 C127.84423579 159.75217561 133.33234129 166.65901086 138.9453125 173.48046875 C142.03321506 177.26696524 145.01845993 181.12959705 148 185 C156.57924803 196.06932246 165.23198841 207.07955235 174 218 C186.04605747 233.01331585 186.04605747 233.01331585 191.171875 239.64453125 C193.53686182 242.69172581 195.92563422 245.71993239 198.3125 248.75 C201.95111631 253.37008929 205.5536928 258.01523198 209.125 262.6875 C212.88845784 267.60707203 216.77550775 272.41117841 220.71875 277.1875 C223.20303761 280.25032034 225.6081425 283.36493851 228 286.5 C231.01763489 290.45416214 234.07946285 294.35349859 237.25 298.1875 C241.92256437 303.84769343 246.41329398 309.64306185 250.90820312 315.44482422 C254.58962523 320.19449829 258.31131861 324.90671627 262.08203125 329.5859375 C264.40400702 332.50850578 266.67102568 335.47189493 268.9375 338.4375 C272.76458353 343.44287638 276.71014828 348.33267516 280.72265625 353.19140625 C283.18637422 356.22985088 285.56849205 359.32527386 287.9375 362.4375 C291.21177009 366.73739917 294.57695212 370.92948193 298.0625 375.0625 C301.27336394 378.87664738 304.34804946 382.74150027 307.3125 386.75 C310.84907743 391.53185117 314.53742556 396.15464329 318.3125 400.75 C322.74657086 406.15115142 327.02908883 411.63392513 331.1875 417.25 C335.40073907 422.93848771 339.79236364 428.40672115 344.37109375 433.80859375 C347.54358031 437.6060565 350.51340821 441.55591139 353.5 445.5 C358.05933919 451.51915091 362.74989321 457.36243369 367.62109375 463.1328125 C371.40119469 467.68879623 374.96694681 472.40699333 378.55615234 477.11328125 C385.83410769 486.62360233 393.17656512 496.07993859 400.8046875 505.3125 C403.8246622 509.00955088 406.76237004 512.7687495 409.70385742 516.52832031 C413.10778874 520.87506926 416.54511769 525.19366428 420 529.5 C425.25527758 536.0538692 430.45653898 542.64840567 435.63671875 549.26171875 C437.01580399 551.02015122 438.39802851 552.77606979 439.78125 554.53125 C444.18275078 560.11863136 448.55945816 565.7208733 452.875 571.375 C457.68974212 577.67031147 462.68884785 583.809253 467.69921875 589.94921875 C475.09161987 599.00996076 482.38376431 608.14349249 489.48852539 617.43164062 C493.97820033 623.29555757 498.58768025 629.06128058 503.2734375 634.76953125 C504.00820312 635.67058594 504.74296875 636.57164062 505.5 637.5 C506.1703125 638.3146875 506.840625 639.129375 507.53125 639.96875 C509 642 509 642 509 644 C483.82658603 644.18687612 458.65327601 644.32795276 433.47930813 644.41449738 C421.79057568 644.45574963 410.10227419 644.51199145 398.41381836 644.60351562 C388.22621358 644.68324965 378.0389209 644.73486494 367.85101277 644.75270796 C362.45632198 644.76313841 357.06252405 644.7876523 351.66811943 644.84584045 C346.58962531 644.90017669 341.512391 644.91688578 336.4336338 644.90486145 C334.57077561 644.90706084 332.70787495 644.92295562 330.84526825 644.9536438 C316.75922745 645.17432402 316.75922745 645.17432402 312.36779213 642.24294186 C310.58195725 640.23736739 309.27672218 638.35255287 308 636 C307.38060547 635.20215088 306.76121094 634.40430176 306.12304688 633.58227539 C305.65962891 632.92735107 305.19621094 632.27242676 304.71875 631.59765625 C304.19079834 630.85765381 303.66284668 630.11765137 303.11889648 629.35522461 C302.58466064 628.59862549 302.0504248 627.84202637 301.5 627.0625 C296.59072332 620.15900389 296.59072332 620.15900389 291.4375 613.4375 C288.1454924 609.29594206 285.1503141 604.96234604 282.125 600.625 C278.02488127 594.75180545 273.74976428 589.15192257 269.140625 583.6640625 C266.37669682 580.22428327 263.91132345 576.61148091 261.43359375 572.96240234 C258.46831469 568.61765713 255.31757886 564.44630772 252.08227539 560.29736328 C248.29911321 555.429488 244.64464606 550.47215318 241 545.5 C237.0550864 540.12167466 233.08758299 534.77083069 229 529.5 C224.33836444 523.48572592 219.82710132 517.36732331 215.32348633 511.23413086 C210.03895131 504.04035375 204.69298088 496.89435077 199.32568359 489.76220703 C196.65398545 486.2107674 193.98995734 482.65356966 191.32421875 479.09765625 C189.64094287 476.85423142 187.95600804 474.61210896 186.26953125 472.37109375 C180.2091952 464.31230908 174.2026952 456.21603642 168.22973633 448.09228516 C163.43062995 441.57061031 158.5859288 435.08425822 153.71875 428.61328125 C153.27402344 428.02192383 152.82929687 427.43056641 152.37109375 426.82128906 C151.42695727 425.56714766 150.48157141 424.31394616 149.53515625 423.06152344 C146.48675921 419.01744866 143.50388734 414.9334586 140.56176758 410.81152344 C135.46025859 403.66925136 130.23447692 396.65231443 124.8125 389.75 C120.28516656 383.98658946 115.89741924 378.16373415 111.67578125 372.17333984 C107.14174827 365.74951309 102.40062737 359.48478499 97.66552734 353.20849609 C89.0662483 341.80581678 80.51601303 330.36886587 72.05688477 318.86181641 C66.95600748 311.92762001 61.79834227 305.03743828 56.62304688 298.15869141 C52.8627602 293.15741963 49.11147564 288.1493832 45.35791016 283.14306641 C41.45211769 277.93403942 41.45211769 277.93403942 37.5390625 272.73046875 C32.38281847 265.8778396 27.30159242 258.97193399 22.22460938 252.06054688 C18.8487584 247.47565326 15.43144819 242.93297079 11.9375 238.4375 C7.39982573 232.58628845 3.06837428 226.5990535 -1.25195312 220.58618164 C-5.75249811 214.32619986 -10.35110335 208.15084787 -15 202 C-16.87702287 199.50151614 -18.7509818 197.00073804 -20.625 194.5 C-23.99452314 190.00366467 -27.36794931 185.51036057 -30.75 181.0234375 C-41.89138957 166.22786366 -41.89138957 166.22786366 -47.125 158.8125 C-51.80962895 152.17756757 -56.74355396 145.74544306 -61.6953125 139.30859375 C-65.41665722 134.46822033 -69.09058872 129.59290911 -72.73266602 124.69262695 C-75.03888375 121.59244633 -77.36591029 118.52091244 -79.78515625 115.5078125 C-80.21344727 114.96552002 -80.64173828 114.42322754 -81.08300781 113.86450195 C-82.22862832 112.41837218 -83.38914323 110.98407633 -84.55078125 109.55078125 C-86 107 -86 107 -86.015625 104.4921875 C-84.69553735 101.2528955 -82.86834359 99.32499024 -80.4375 96.8125 C-75.65193696 91.75897967 -71.28590846 86.48034197 -67 81 C-57.3115387 68.76194362 -47.38828057 56.71494495 -37.19506836 44.89428711 C-32.69996662 39.67404713 -28.33895178 34.35058352 -24 29 C-22.500855 27.16596746 -21.00084678 25.33264019 -19.5 23.5 C-17.21226343 20.70520838 -14.92604865 17.9092471 -12.64453125 15.109375 C-10.43579318 12.40117355 -8.21955153 9.6993418 -6 7 C-5.39671875 6.25878906 -4.7934375 5.51757812 -4.171875 4.75390625 C-2.82635796 3.13079467 -1.41991551 1.55844385 0 0 Z " fill="#989898" transform="translate(786,736)"/>
<path d="M0 0 C22.01669524 20.99781397 36.11499181 51.85700684 37.640625 82.1953125 C37.65738281 83.113125 37.67414063 84.0309375 37.69140625 84.9765625 C37.71847656 86.100625 37.74554687 87.2246875 37.7734375 88.3828125 C38.20449636 124.43500821 25.32265516 157.8047244 0.08203125 183.7421875 C-14.66875512 198.21099946 -31.93442724 207.38545409 -51.30859375 213.9765625 C-52.46746094 214.38003906 -53.62632812 214.78351563 -54.8203125 215.19921875 C-66.70772948 219.12417655 -78.56796908 219.21424972 -90.99609375 219.2265625 C-92.05916245 219.22807312 -92.05916245 219.22807312 -93.14370728 219.22961426 C-103.50338989 219.21966245 -113.27619832 218.78949648 -123.30859375 215.9765625 C-124.41074219 215.68652344 -125.51289062 215.39648438 -126.6484375 215.09765625 C-146.92142817 209.33636639 -163.83173045 199.07234593 -179.30859375 184.9765625 C-180.30246094 184.08904297 -180.30246094 184.08904297 -181.31640625 183.18359375 C-202.17118766 163.54129964 -216.00735 132.44486702 -217.51513672 104.09277344 C-217.61588661 100.6534455 -217.63502082 97.21627503 -217.62426758 93.77563477 C-217.62111179 91.67606343 -217.64466337 89.57791402 -217.66992188 87.47851562 C-217.82266375 54.13943954 -203.83966685 23.96497837 -180.93359375 0.2265625 C-163.31650962 -16.74447905 -142.92826218 -27.16409307 -119.30859375 -33.0234375 C-118.45910156 -33.24128906 -117.60960937 -33.45914062 -116.734375 -33.68359375 C-74.86063679 -43.83252491 -31.37292036 -27.49775423 0 0 Z " fill="#CBCBCB" transform="translate(1320.30859375,459.0234375)"/>
<path d="M0 0 C0.33 0 0.66 0 1 0 C1.23074219 1.26972656 1.46148437 2.53945312 1.69921875 3.84765625 C5.89943564 26.30434825 13.26974248 45.66081597 27 64 C28.02287109 65.37671875 28.02287109 65.37671875 29.06640625 66.78125 C33.24063508 72.20529686 37.68012705 76.71072974 43 81 C43.76054688 81.63550781 44.52109375 82.27101563 45.3046875 82.92578125 C55.43104292 91.25656886 65.85973346 97.99018309 78 103 C79.08925781 103.45375 80.17851563 103.9075 81.30078125 104.375 C99.86058586 111.56772704 118.9267314 111.51397648 138.58612061 111.66955566 C142.0262904 111.69983287 145.46624441 111.74619463 148.90625 111.79101562 C155.60406477 111.87513684 162.30189572 111.94380218 169 112 C169.00364563 112.63574951 169.00729126 113.27149902 169.01104736 113.92651367 C169.0535866 120.67807733 169.1234009 127.42900528 169.20751953 134.18017578 C169.23536126 136.68369111 169.25675399 139.18728834 169.27099609 141.69091797 C169.41157196 165.03588284 170.19157526 190.36972826 181.5625 211.375 C181.99941162 212.19154053 182.43632324 213.00808105 182.88647461 213.84936523 C189.08049956 225.12725955 197.21811357 234.63376751 206 244 C206.51304687 244.58910156 207.02609375 245.17820312 207.5546875 245.78515625 C225.9162285 265.90674134 257.35416414 278.2556902 284 280 C284 280.33 284 280.66 284 281 C190.28 281 96.56 281 0 281 C0 188.27 0 95.54 0 0 Z " fill="#FEFEFE" transform="translate(0,1166)"/>
<path d="M0 0 C93.39 0 186.78 0 283 0 C283 91.41 283 182.82 283 277 C282.67 277 282.34 277 282 277 C281.78085938 275.88625 281.56171875 274.7725 281.3359375 273.625 C276.8316802 251.58553035 268.46404065 231.43748455 254 214 C252.92105469 212.69289062 252.92105469 212.69289062 251.8203125 211.359375 C246.45726891 205.13748102 240.52315406 199.97402162 234 195 C233.23300781 194.40574219 232.46601562 193.81148437 231.67578125 193.19921875 C205.10288967 173.57407811 176.71242471 169.58465075 144.48254395 169.33044434 C141.03576171 169.30020038 137.58919587 169.2538263 134.14257812 169.20898438 C127.42848743 169.12479587 120.71438066 169.05615602 114 169 C113.99857498 168.2993895 113.99714996 167.59877899 113.99568176 166.87693787 C113.97758753 160.15854576 113.93521707 153.44066047 113.86790943 146.72259426 C113.83412799 143.27160499 113.80860803 139.82103523 113.80444336 136.36987305 C113.74210853 97.94205324 105.0445267 65.24178313 77.75 37.3125 C71.40861541 31.01347289 64.45597164 25.8960582 57 21 C56.18402344 20.44957031 55.36804687 19.89914063 54.52734375 19.33203125 C38.05768703 8.79484093 19.33760446 3.12133074 0 1 C0 0.67 0 0.34 0 0 Z " fill="#FEFEFE" transform="translate(1637,0)"/>
<path d="M0 0 C0.33 0 0.66 0 1 0 C1 36.63 1 73.26 1 111 C-35.63 111 -72.26 111 -110 111 C-110 110.67 -110 110.34 -110 110 C-108.71609375 109.8040625 -107.4321875 109.608125 -106.109375 109.40625 C-82.17334174 105.47284177 -60.23702323 96.18855884 -42 80 C-41.18402344 79.33871094 -40.36804687 78.67742187 -39.52734375 77.99609375 C-27.77039156 68.17689596 -18.77153834 54.64211867 -12 41 C-11.69223633 40.38141113 -11.38447266 39.76282227 -11.06738281 39.12548828 C-5.03859212 26.64897839 -2.44191906 13.57021546 0 0 Z " fill="#FCFCFC" transform="translate(1919,1336)"/>
<path d="M0 0 C35.64 0 71.28 0 108 0 C104.54923562 1.72538219 101.79924997 2.52365308 98.06079102 3.24169922 C87.99759156 5.18310463 79.15461124 8.44819469 70 13 C68.99195312 13.49628906 67.98390625 13.99257812 66.9453125 14.50390625 C56.10771738 20.13761363 46.83315897 27.62661114 38 36 C37.14148437 36.80566406 36.28296875 37.61132812 35.3984375 38.44140625 C22.22457871 51.15756299 13.64477179 67.09553339 7 84 C6.69320313 84.76441406 6.38640625 85.52882813 6.0703125 86.31640625 C3.38809934 93.60262446 2.3190021 101.37598074 1 109 C0.67 109 0.34 109 0 109 C0 73.03 0 37.06 0 0 Z " fill="#FDFDFD" transform="translate(0,0)"/>
<path d="M0 0 C0.33 0.99 0.66 1.98 1 3 C-1.31 4.98 -3.62 6.96 -6 9 C-4.25618453 5.51236907 -2.47193291 2.96631949 0 0 Z " fill="#878787" transform="translate(480,1106)"/>
<path d="M0 0 C0.66 0.33 1.32 0.66 2 1 C0.02 3.31 -1.96 5.62 -4 8 C-4.66 7.67 -5.32 7.34 -6 7 C-4.02 4.69 -2.04 2.38 0 0 Z " fill="#4B4B4B" transform="translate(381,1120)"/>
<path d="M0 0 C0.99 0.33 1.98 0.66 3 1 C2.01 1.495 2.01 1.495 1 2 C0.690625 2.639375 0.38125 3.27875 0.0625 3.9375 C-1 6 -1 6 -4 8 C-2.87548273 5.0280615 -1.77706209 2.66559313 0 0 Z " fill="#4A4A4A" transform="translate(20,56)"/>
</svg>
